<svg xmlns="http://www.w3.org/2000/svg" width="300px" height="367px" viewBox="0 0 978.804 1198.270" preserveAspectRatio="xMidYMid meet"><title>Circuit de Barcelona-Catalunya</title><polyline points="765.555,536.365 641.267,733.736 572.551,844.375 501.090,957.238 426.301,1077.440 400.761,1118.026 392.609,1127.144 385.288,1133.593 378.965,1136.484 367.651,1137.930 357.336,1137.263 349.682,1135.261 342.278,1131.258 316.489,1114.801 308.336,1111.132 293.694,1107.907 281.881,1107.907 264.993,1111.577 255.426,1117.581 183.882,1171.066 173.899,1176.070 163.583,1179.850 149.773,1184.521 136.712,1186.522 125.315,1186.522 112.920,1185.855 99.110,1184.076 85.716,1179.739 69.577,1171.733 61.258,1165.617 53.604,1158.946 46.699,1152.719 28.397,1128.701 19.413,1110.131 12.924,1089.449 11.260,1074.882 9.596,1057.536 10.012,1039.189 12.757,1019.730 20.494,988.818 28.980,963.910 38.131,944.340 47.947,928.883 172.235,731.179 179.722,724.174 190.121,718.058 209.505,713.277 221.817,714.722 231.800,717.724 243.280,724.174 256.258,734.626 264.577,744.078 274.560,764.093 278.138,779.215 279.136,802.677 278.304,816.688 274.810,832.477 268.071,847.934 255.593,871.841 165.330,1012.947 162.834,1022.510 162.668,1030.849 164.914,1040.857 169.074,1047.751 173.649,1053.533 180.804,1058.537 189.705,1061.650 196.693,1062.873 208.090,1060.649 213.332,1058.537 349.017,997.157 367.818,985.482 386.536,971.138 405.337,953.346 418.648,937.223 472.639,852.493 478.462,839.816 480.958,831.032 478.712,817.133 471.807,804.679 461.158,794.782 436.534,780.216 423.140,769.319 415.736,760.979 408.415,750.304 404.339,743.077 370.397,662.127 331.879,570.947 328.801,555.269 328.801,539.256 330.382,526.914 332.877,515.016 340.448,501.228 346.271,491.887 358.750,478.210 371.145,468.537 802.908,247.036 818.049,238.474 825.952,230.023 829.779,221.906 830.777,212.121 827.699,201.224 822.624,192.551 815.304,185.434 804.655,177.317 787.435,169.756 776.786,167.198 762.061,165.197 749.416,164.641 736.688,165.419 722.795,168.977 703.495,178.318 690.267,185.990 671.799,202.225 653.497,215.346 640.852,221.017 621.302,222.462 609.655,219.905 595.762,212.788 584.614,203.448 577.709,192.551 572.136,180.319 570.388,166.865 569.889,160.527 573.716,142.735 580.538,130.059 591.186,119.718 694.094,34.987 704.243,26.425 717.055,18.864 728.701,14.750 744.924,12.193 760.897,11.748 775.538,14.750 787.518,19.865 811.810,35.321 838.930,52.779 862.390,69.013 877.531,77.798 928.693,110.266 941.006,118.940 948.826,127.168 955.897,136.731 961.637,147.739 966.379,162.417 969.041,176.094 969.207,195.775 966.379,213.455 952.153,241.588 765.555,536.365" fill="none" stroke="black" stroke-width="17.618" stroke-linecap="round" stroke-linejoin="round"/><polyline points="765.555,536.365 641.267,733.736 572.551,844.375 501.090,957.238 426.301,1077.440 400.761,1118.026 392.609,1127.144 385.288,1133.593 378.965,1136.484 367.651,1137.930 357.336,1137.263 349.682,1135.261 342.278,1131.258 316.489,1114.801 308.336,1111.132 293.694,1107.907 281.881,1107.907 264.993,1111.577 255.426,1117.581 183.882,1171.066 173.899,1176.070 163.583,1179.850 149.773,1184.521 136.712,1186.522 125.315,1186.522 112.920,1185.855 99.110,1184.076 85.716,1179.739 69.577,1171.733 61.258,1165.617 53.604,1158.946 46.699,1152.719 28.397,1128.701 19.413,1110.131 12.924,1089.449 11.260,1074.882 9.596,1057.536 10.012,1039.189 12.757,1019.730 20.494,988.818 28.980,963.910 38.131,944.340 47.947,928.883 172.235,731.179 179.722,724.174 190.121,718.058 209.505,713.277 221.817,714.722 231.800,717.724 243.280,724.174 256.258,734.626 264.577,744.078 274.560,764.093 278.138,779.215 279.136,802.677 278.304,816.688 274.810,832.477 268.071,847.934 255.593,871.841 165.330,1012.947 162.834,1022.510 162.668,1030.849 164.914,1040.857 169.074,1047.751 173.649,1053.533 180.804,1058.537 189.705,1061.650 196.693,1062.873 208.090,1060.649 213.332,1058.537 349.017,997.157 367.818,985.482 386.536,971.138 405.337,953.346 418.648,937.223 472.639,852.493 478.462,839.816 480.958,831.032 478.712,817.133 471.807,804.679 461.158,794.782 436.534,780.216 423.140,769.319 415.736,760.979 408.415,750.304 404.339,743.077 370.397,662.127 331.879,570.947 328.801,555.269 328.801,539.256 330.382,526.914 332.877,515.016 340.448,501.228 346.271,491.887 358.750,478.210 371.145,468.537 802.908,247.036 818.049,238.474 825.952,230.023 829.779,221.906 830.777,212.121 827.699,201.224 822.624,192.551 815.304,185.434 804.655,177.317 787.435,169.756 776.786,167.198 762.061,165.197 749.416,164.641 736.688,165.419 722.795,168.977 703.495,178.318 690.267,185.990 671.799,202.225 653.497,215.346 640.852,221.017 621.302,222.462 609.655,219.905 595.762,212.788 584.614,203.448 577.709,192.551 572.136,180.319 570.388,166.865 569.889,160.527 573.716,142.735 580.538,130.059 591.186,119.718 694.094,34.987 704.243,26.425 717.055,18.864 728.701,14.750 744.924,12.193 760.897,11.748 775.538,14.750 787.518,19.865 811.810,35.321 838.930,52.779 862.390,69.013 877.531,77.798 928.693,110.266 941.006,118.940 948.826,127.168 955.897,136.731 961.637,147.739 966.379,162.417 969.041,176.094 969.207,195.775 966.379,213.455 952.153,241.588 765.555,536.365" fill="none" stroke="#e5d486" stroke-width="11.746" stroke-linecap="round" stroke-linejoin="round"/></svg>